<svg width="640" height="231" viewBox="0 0 640 231" fill="none" xmlns="http://www.w3.org/2000/svg">
<path d="M207.267 111.111C208.001 106.833 209.529 103.023 211.851 99.682C214.174 96.3408 217.107 93.7535 220.652 91.9199C224.197 90.0456 228.15 89.1084 232.509 89.1084C236.258 89.1084 239.477 89.8215 242.166 91.2476C244.896 92.6329 246.974 94.6091 248.4 97.1761C249.827 99.7431 250.519 102.738 250.479 106.161H236.177C235.769 104.735 235.036 103.634 233.976 102.86C232.917 102.045 231.613 101.638 230.065 101.638C227.783 101.638 225.827 102.493 224.197 104.205C222.567 105.916 221.508 108.218 221.019 111.111C220.856 111.926 220.775 112.802 220.775 113.739C220.775 115.858 221.284 117.529 222.303 118.751C223.362 119.974 224.849 120.585 226.764 120.585C228.313 120.585 229.759 120.198 231.104 119.424C232.448 118.609 233.569 117.488 234.465 116.062H248.767C247.545 119.485 245.772 122.479 243.45 125.046C241.127 127.613 238.357 129.61 235.138 131.036C231.959 132.422 228.496 133.114 224.747 133.114C220.958 133.114 217.719 132.422 215.029 131.036C212.34 129.61 210.303 127.613 208.918 125.046C207.532 122.439 206.839 119.424 206.839 116.001C206.839 114.33 206.982 112.7 207.267 111.111ZM298.331 89.5362L290.691 132.809H277.122L280.117 115.94H267.221L264.226 132.809H250.658L258.297 89.5362H271.866L269.116 105.122H282.012L284.762 89.5362H298.331ZM325.705 126.269H311.281L307.98 132.809H293.739L317.209 89.5362H332.856L340.985 132.809H326.683L325.705 126.269ZM324.238 116.062L322.465 104.021L316.415 116.062H324.238ZM371.876 89.5362C376.521 89.5362 380.046 90.5753 382.45 92.6533C384.854 94.7314 386.056 97.5021 386.056 100.966C386.056 101.984 385.975 102.901 385.812 103.716C385.282 106.65 384.019 109.237 382.022 111.478C380.026 113.678 377.438 115.267 374.26 116.245L380.739 132.809H365.826L360.386 117.284L357.636 132.809H344.067L351.707 89.5362H371.876ZM361.975 108.239H367.354C368.657 108.239 369.676 107.953 370.41 107.383C371.184 106.772 371.693 105.835 371.938 104.572C371.978 104.368 371.999 104.103 371.999 103.777C371.999 102.881 371.713 102.188 371.143 101.699C370.573 101.169 369.737 100.904 368.637 100.904H363.259L361.975 108.239ZM387.64 111.111C388.374 106.833 389.922 103.023 392.285 99.682C394.649 96.3408 397.644 93.7535 401.27 91.9199C404.896 90.0456 408.93 89.1084 413.372 89.1084C417.161 89.1084 420.38 89.74 423.028 91.0031C425.718 92.2255 427.714 93.9776 429.018 96.2593C430.363 98.5411 430.974 101.23 430.852 104.327H416.55C416.183 103.471 415.551 102.819 414.655 102.371C413.759 101.882 412.618 101.638 411.232 101.638C408.625 101.638 406.445 102.493 404.693 104.205C402.981 105.916 401.881 108.218 401.392 111.111C401.188 112.334 401.087 113.332 401.087 114.106C401.087 118.833 403.837 121.196 409.338 121.196C412.475 121.196 415.226 119.933 417.589 117.407H406.771L408.421 107.811H430.485L428.101 121.379C425.657 124.598 422.58 127.369 418.872 129.692C415.164 131.973 410.784 133.114 405.732 133.114C401.82 133.114 398.479 132.401 395.708 130.975C392.937 129.549 390.819 127.552 389.352 124.985C387.926 122.378 387.213 119.342 387.213 115.879C387.213 114.249 387.355 112.66 387.64 111.111ZM450.285 100.293L449.368 105.672H462.814L460.98 115.879H447.534L446.434 121.991H461.714L459.819 132.809H430.971L438.611 89.5362H467.459L465.564 100.293H450.285ZM467.561 111.111C468.294 106.833 469.822 103.023 472.145 99.682C474.467 96.3408 477.401 93.7535 480.946 91.9199C484.491 90.0456 488.443 89.1084 492.803 89.1084C496.552 89.1084 499.771 89.8215 502.46 91.2476C505.19 92.6329 507.268 94.6091 508.694 97.1761C510.12 99.7431 510.813 102.738 510.772 106.161H496.47C496.063 104.735 495.329 103.634 494.27 102.86C493.211 102.045 491.907 101.638 490.358 101.638C488.076 101.638 486.121 102.493 484.491 104.205C482.861 105.916 481.802 108.218 481.313 111.111C481.15 111.926 481.068 112.802 481.068 113.739C481.068 115.858 481.577 117.529 482.596 118.751C483.656 119.974 485.143 120.585 487.058 120.585C488.606 120.585 490.053 120.198 491.397 119.424C492.742 118.609 493.862 117.488 494.759 116.062H509.061C507.838 119.485 506.066 122.479 503.743 125.046C501.421 127.613 498.65 129.61 495.431 131.036C492.253 132.422 488.79 133.114 485.041 133.114C481.252 133.114 478.012 132.422 475.323 131.036C472.634 129.61 470.596 127.613 469.211 125.046C467.826 122.439 467.133 119.424 467.133 116.001C467.133 114.33 467.276 112.7 467.561 111.111ZM539.86 126.269H525.436L522.136 132.809H507.895L531.365 89.5362H547.011L555.14 132.809H540.838L539.86 126.269ZM538.394 116.062L536.621 104.021L530.57 116.062H538.394ZM586.032 89.5362C590.677 89.5362 594.202 90.5753 596.606 92.6533C599.01 94.7314 600.212 97.5021 600.212 100.966C600.212 101.984 600.13 102.901 599.967 103.716C599.438 106.65 598.175 109.237 596.178 111.478C594.181 113.678 591.594 115.267 588.416 116.245L594.894 132.809H579.981L574.542 117.284L571.791 132.809H558.223L565.863 89.5362H586.032ZM576.131 108.239H581.509C582.813 108.239 583.832 107.953 584.565 107.383C585.339 106.772 585.849 105.835 586.093 104.572C586.134 104.368 586.154 104.103 586.154 103.777C586.154 102.881 585.869 102.188 585.299 101.699C584.728 101.169 583.893 100.904 582.793 100.904H577.414L576.131 108.239ZM617.748 133.236C612.451 133.236 608.214 132.177 605.035 130.058C601.898 127.939 600.329 124.843 600.329 120.768C600.329 120.361 600.37 119.749 600.452 118.935H614.876C614.753 120.198 614.937 121.135 615.426 121.746C615.955 122.357 616.811 122.663 617.993 122.663C618.726 122.663 619.337 122.479 619.826 122.113C620.315 121.746 620.56 121.216 620.56 120.524C620.56 119.546 620.071 118.731 619.093 118.079C618.156 117.427 616.628 116.653 614.509 115.756C612.186 114.778 610.271 113.841 608.764 112.945C607.297 112.048 606.013 110.826 604.913 109.278C603.813 107.729 603.263 105.794 603.263 103.471C603.263 100.415 604.017 97.7873 605.524 95.587C607.073 93.346 609.212 91.655 611.942 90.5141C614.672 89.3733 617.789 88.8028 621.293 88.8028C624.431 88.8028 627.222 89.2918 629.666 90.2697C632.152 91.2476 634.087 92.6737 635.473 94.548C636.899 96.3816 637.612 98.5615 637.612 101.088C637.612 101.414 637.571 101.984 637.49 102.799H622.882C622.964 102.31 623.004 101.984 623.004 101.821C623.004 101.047 622.78 100.456 622.332 100.049C621.884 99.6005 621.273 99.3764 620.499 99.3764C619.806 99.3764 619.235 99.5802 618.787 99.9876C618.339 100.395 618.115 100.925 618.115 101.577C618.115 102.473 618.584 103.268 619.521 103.96C620.458 104.612 621.945 105.427 623.982 106.405C626.305 107.505 628.22 108.544 629.728 109.522C631.276 110.5 632.6 111.804 633.7 113.434C634.8 115.023 635.351 116.979 635.351 119.301C635.351 121.95 634.638 124.333 633.211 126.452C631.826 128.571 629.809 130.242 627.161 131.464C624.512 132.646 621.375 133.236 617.748 133.236Z" fill="white"/>
<mask id="mask0_1154_787" style="mask-type:alpha" maskUnits="userSpaceOnUse" x="0" y="0" width="247" height="231">
<path d="M246.54 0.797852L129.047 117.59L128.984 117.653L129.048 117.715L246.536 230.912H0.508301V0.797852H246.54Z" fill="#E8E8E8" stroke="url(#paint0_linear_1154_787)" stroke-width="0.175325"/>
</mask>
<g mask="url(#mask0_1154_787)">
<path d="M153.216 36.6114C166.965 36.6116 179.687 43.8325 186.743 55.5965L187.075 56.1603L210.256 96.3118C217.24 108.409 217.241 123.313 210.257 135.409L187.075 175.56C180.2 187.468 167.586 194.875 153.869 195.104L153.215 195.11L106.853 195.109C93.1031 195.109 80.3814 187.888 73.3254 176.124L72.9934 175.56L49.8117 135.41C42.8276 123.313 42.8277 108.409 49.8116 96.3121L72.9932 56.1603C79.9773 44.0636 92.8845 36.6117 106.853 36.6116L153.216 36.6114Z" stroke="url(#paint1_linear_1154_787)" stroke-width="26.2988"/>
<path d="M129.12 86.2823C139.674 86.2823 149.427 91.913 154.704 101.053C159.98 110.193 159.98 121.453 154.703 130.593C149.426 139.733 139.674 145.364 129.121 145.364C118.732 145.364 109.12 139.908 103.789 131.019L103.537 130.593C98.2605 121.454 98.2612 110.193 103.538 101.053C108.815 91.9133 118.567 86.2824 129.12 86.2823Z" stroke="url(#paint2_linear_1154_787)" stroke-width="26.2988"/>
</g>
<path d="M466.945 177.536C466.518 180.139 465.516 182.528 463.937 184.704C462.358 186.837 460.204 188.565 457.473 189.888C454.785 191.211 451.606 191.872 447.937 191.872H441.153L438.273 208H427.329L435.265 163.072H452.993C457.686 163.072 461.228 164.117 463.617 166.208C466.006 168.256 467.201 171.051 467.201 174.592C467.201 175.659 467.116 176.64 466.945 177.536ZM448.577 183.296C452.673 183.296 455.084 181.376 455.809 177.536C455.894 176.853 455.937 176.363 455.937 176.064C455.937 174.699 455.489 173.653 454.593 172.928C453.74 172.16 452.417 171.776 450.625 171.776H444.673L442.689 183.296H448.577ZM483.587 208.512C480.515 208.512 477.784 207.893 475.395 206.656C473.005 205.419 471.149 203.669 469.827 201.408C468.547 199.147 467.907 196.523 467.907 193.536C467.907 189.483 468.867 185.792 470.786 182.464C472.707 179.136 475.352 176.533 478.723 174.656C482.093 172.736 485.848 171.776 489.987 171.776C493.059 171.776 495.789 172.416 498.179 173.696C500.611 174.933 502.488 176.683 503.811 178.944C505.133 181.205 505.795 183.829 505.795 186.816C505.795 190.912 504.813 194.624 502.851 197.952C500.931 201.237 498.264 203.819 494.851 205.696C491.48 207.573 487.725 208.512 483.587 208.512ZM485.123 199.104C486.915 199.104 488.515 198.571 489.923 197.504C491.373 196.395 492.483 194.987 493.251 193.28C494.061 191.531 494.467 189.717 494.467 187.84C494.467 185.707 493.891 184.064 492.739 182.912C491.587 181.76 490.136 181.184 488.387 181.184C486.552 181.184 484.931 181.739 483.523 182.848C482.157 183.915 481.091 185.323 480.323 187.072C479.555 188.821 479.171 190.656 479.171 192.576C479.171 194.667 479.725 196.288 480.835 197.44C481.944 198.549 483.373 199.104 485.123 199.104ZM524.081 178.752C525.745 176.619 527.643 174.955 529.777 173.76C531.953 172.523 534.214 171.904 536.561 171.904L534.513 183.488H531.505C528.774 183.488 526.619 184.085 525.041 185.28C523.462 186.432 522.417 188.48 521.905 191.424L518.961 208H508.017L514.289 172.288H525.233L524.081 178.752ZM550.24 195.712C550.197 195.925 550.176 196.203 550.176 196.544C550.176 197.312 550.389 197.867 550.816 198.208C551.285 198.549 552.032 198.72 553.056 198.72H556.96L555.296 208H549.728C542.56 208 538.976 204.992 538.976 198.976C538.976 198.08 539.082 196.949 539.296 195.584L541.856 181.376H537.504L539.104 172.288H543.456L544.992 163.584H555.936L554.4 172.288H561.568L559.968 181.376H552.8L550.24 195.712ZM562.416 190.08C563.056 186.411 564.314 183.189 566.192 180.416C568.069 177.643 570.33 175.509 572.976 174.016C575.621 172.523 578.416 171.776 581.36 171.776C583.877 171.776 585.989 172.288 587.696 173.312C589.402 174.336 590.64 175.68 591.408 177.344L592.304 172.288H603.248L596.912 208H585.968L586.928 202.944C585.562 204.608 583.834 205.952 581.744 206.976C579.653 208 577.349 208.512 574.832 208.512C572.314 208.512 570.074 207.936 568.112 206.784C566.192 205.632 564.698 204.011 563.632 201.92C562.565 199.787 562.032 197.291 562.032 194.432C562.032 193.067 562.16 191.616 562.416 190.08ZM589.168 190.144C589.296 189.376 589.36 188.672 589.36 188.032C589.36 185.941 588.741 184.299 587.504 183.104C586.309 181.909 584.773 181.312 582.896 181.312C580.72 181.312 578.736 182.101 576.944 183.68C575.152 185.216 574.021 187.349 573.552 190.08C573.424 190.848 573.36 191.552 573.36 192.192C573.36 194.283 573.957 195.947 575.152 197.184C576.389 198.379 577.925 198.976 579.76 198.976C581.936 198.976 583.92 198.187 585.712 196.608C587.504 195.029 588.656 192.875 589.168 190.144ZM624.157 160.64L615.773 208H604.829L613.213 160.64H624.157Z" fill="#2E46E8"/>
<defs>
<linearGradient id="paint0_linear_1154_787" x1="123.586" y1="0.709961" x2="123.586" y2="231" gradientUnits="userSpaceOnUse">
<stop stop-color="#538DEC"/>
<stop offset="1" stop-color="#11469A"/>
</linearGradient>
<linearGradient id="paint1_linear_1154_787" x1="222.432" y1="169.207" x2="37.6358" y2="62.5144" gradientUnits="userSpaceOnUse">
<stop stop-color="#4C83ED"/>
<stop offset="1" stop-color="#1E26E4"/>
</linearGradient>
<linearGradient id="paint2_linear_1154_787" x1="171.81" y1="140.47" x2="86.4307" y2="91.1761" gradientUnits="userSpaceOnUse">
<stop stop-color="#4C83ED"/>
<stop offset="1" stop-color="#1E26E4"/>
</linearGradient>
</defs>
</svg>
